<?xml version="1.0" encoding="UTF-8" standalone="no"?>
<svg
   xmlns:dc="http://purl.org/dc/elements/1.1/"
   xmlns:cc="http://creativecommons.org/ns#"
   xmlns:rdf="http://www.w3.org/1999/02/22-rdf-syntax-ns#"
   xmlns:svg="http://www.w3.org/2000/svg"
   xmlns="http://www.w3.org/2000/svg"
   xmlns:sodipodi="http://sodipodi.sourceforge.net/DTD/sodipodi-0.dtd"
   xmlns:inkscape="http://www.inkscape.org/namespaces/inkscape"
   class="icon"
   height="850"
   viewBox="0 0 850 1700"
   version="1.1"
   id="svg4242"
   sodipodi:docname="bormashina.svg"
   width="850"
   inkscape:version="0.92.3 (2405546, 2018-03-11)">
  <metadata
     id="metadata4248">
    <rdf:RDF>
      <cc:Work
         rdf:about="">
        <dc:format>image/svg+xml</dc:format>
        <dc:type
           rdf:resource="http://purl.org/dc/dcmitype/StillImage" />
        <dc:title></dc:title>
      </cc:Work>
    </rdf:RDF>
  </metadata>
  <defs
     id="defs4246" />
  <sodipodi:namedview
     pagecolor="#ffffff"
     bordercolor="#666666"
     borderopacity="1"
     objecttolerance="10"
     gridtolerance="10"
     guidetolerance="10"
     inkscape:pageopacity="0"
     inkscape:pageshadow="2"
     inkscape:window-width="1366"
     inkscape:window-height="705"
     id="namedview4244"
     showgrid="false"
     inkscape:zoom="0.41346352"
     inkscape:cx="756.5"
     inkscape:cy="256"
     inkscape:window-x="-8"
     inkscape:window-y="-8"
     inkscape:window-maximized="1"
     inkscape:current-layer="svg4242" />
  <circle
     style="opacity:1;fill:#ffffff;fill-opacity:1;stroke:#ffffff;stroke-width:40;stroke-miterlimit:4;stroke-dasharray:none;stroke-opacity:1"
     id="path4793"
     cx="428.76337"
     cy="860.74817"
     r="766.69397" />
  <g
     id="g4952"
     style="fill:#000000;opacity:1">
    <path
       style="fill:#000000"
       inkscape:connector-curvature="0"
       id="path4236"
       fill=""
       d="M 214.75312,934.17438 H 84.631567 c -7.92044,0 -14.14364,6.2232 -14.14364,14.1437 v 306.63422 c 0,31.6818 25.45856,57.1404 57.140333,57.1404 h 44.69392 c 31.68177,0 57.14033,-25.4586 57.14033,-57.1404 V 948.31808 c 0,-7.9205 -6.78895,-14.1437 -14.70939,-14.1437 z m 48.65414,-13.0121 H 36.543167 c -1.69724,0 -2.82873,-1.1315 -2.82873,-2.8288 v -24.327 c 0,-1.6973 1.1315,-2.8288 2.82873,-2.8288 H 263.40726 c 1.69724,0 2.82873,1.1315 2.82873,2.8288 v 24.327 c 0,1.6973 -1.69724,2.8288 -2.82873,2.8288 z m -82.59889,-122.7669 h -62.23205 c -1.69724,0 -2.82873,1.1315 -2.82873,2.8288 v 75.8099 c 0,1.6972 1.13149,2.8287 2.82873,2.8287 h 62.23205 c 1.69723,0 2.82873,-1.1315 2.82873,-2.8287 v -75.8099 c 0,-1.1315 -1.1315,-2.8288 -2.82873,-2.8288 z m 14.70939,-260.80882 h -91.65083 c -7.920443,0 -14.143653,6.22321 -14.143653,14.14365 V 765.0164 c 0,7.92044 6.22321,14.14364 14.143653,14.14364 h 91.65083 c 7.92044,0 14.14364,-6.2232 14.14364,-14.14364 V 551.73021 c 0,-7.92044 -6.2232,-14.14365 -14.14364,-14.14365 z M 80.105597,718.62524 h -18.10386 c -1.69724,0 -2.82873,-1.1315 -2.82873,-2.82873 V 600.9501 c 0,-1.69724 1.13149,-2.82873 2.82873,-2.82873 h 18.10386 c 1.69724,0 2.82873,1.13149 2.82873,2.82873 v 114.84641 c 0,1.69723 -1.13149,2.82873 -2.82873,2.82873 z m -45.82541,45.82541 h -20.36685 c -7.9204396,0 -14.1436496,-6.2232 -14.1436496,-14.14365 V 567.00535 c 0,-7.92045 6.22321,-14.14365 14.1436496,-14.14365 h 20.36685 c 7.92044,0 14.14365,6.2232 14.14365,14.14365 V 750.307 c 0,7.92045 -6.78895,14.14365 -14.14365,14.14365 z m -51.48287,-16.40663 h -18.10387 c -3.39448,0 -5.65746,-2.82873 -5.65746,-5.65746 V 574.36004 c 0,-3.39447 2.82873,-5.65746 5.65746,-5.65746 h 18.10387 c 3.39447,0 5.65746,2.82873 5.65746,5.65746 v 168.02652 c 0,3.39448 -2.26299,5.65746 -5.65746,5.65746 z m -102.399997,-53.18011 54.311597,38.47072 c 7.92044,0 14.14364,-6.22321 14.14364,-14.14365 V 598.12137 c 0,-7.92044 -6.2232,-14.14365 -14.14364,-14.14365 l -54.311597,38.47072 c -3.96022,2.82873 -6.22321,6.78895 -6.22321,11.88066 v 49.78564 c 0,3.96022 2.26298,7.92044 6.22321,10.74917 z M -247.46125,675.0628 h 107.49172 c 3.39447,0 5.65745,-2.82872 5.65745,-5.65745 V 647.907 c 0,-3.39447 -2.82872,-5.65746 -5.65745,-5.65746 h -107.49172 c -9.05193,0 -16.40663,7.3547 -16.40663,16.40663 0,9.05194 7.3547,16.40663 16.40663,16.40663 z M 1014.152,966.98768 c -12.4464,-41.8652 -57.14035,-194.61659 -110.32045,-256.28289 -53.1801,-61.66629 -71.284,-71.28397 -78.0729,-105.79447 V 572.6628 c 3.3945,-29.98453 13.5779,-61.66629 10.7492,-71.28397 -2.263,-7.3547 -6.2232,-13.01216 -14.1437,-16.40663 -2.263,-2.82873 -6.2232,-5.09172 -10.7492,-5.09172 h -491.6331 c 1.13149,27.72155 3.39447,57.70608 8.48618,70.71824 1.1315,3.39447 2.82873,7.35469 3.96023,11.88066 9.05193,29.41878 24.89281,78.63867 155.58011,75.2442 146.52817,-3.39448 253.45418,14.14364 293.05638,48.0884 58.8375,50.35138 114.2806,168.0265 159.5403,340.57902 29.4188,110.8862 70.15245,175.3812 104.09715,212.1547 20.9326,-92.2166 -21.4983,-241.00772 -30.5502,-271.55802 z" />
    <path
       style="fill:#000000"
       inkscape:connector-curvature="0"
       id="path4238"
       fill=""
       d="m 804.82605,1107.8584 c -11.3149,0 -20.3669,-9.0519 -20.3669,-20.3668 v -73.547 c 0,-16.40662 -7.9204,-32.24752 -21.4983,-41.29952 l -14.1436,-9.6176 c -9.052,-6.2232 -11.315,-19.2354 -5.0918,-28.2873 6.2232,-9.052 19.2354,-11.3149 28.2873,-5.0917 l 14.1437,9.6176 c 24.3271,16.9724 39.0364,44.694 39.0364,74.67852 v 73.547 c -0.5657,11.3149 -9.6176,20.3668 -20.3668,20.3668 z" />
    <path
       style="fill:#000000"
       inkscape:connector-curvature="0"
       id="path4240"
       fill=""
       d="M 922.50115,1031.4827 C 866.49235,818.19648 808.22055,733.90037 769.18405,701.08711 733.54205,670.53684 628.87908,654.69595 489.7056,658.09043 343.74317,661.4849 324.50781,600.9501 314.32439,568.70258 c -1.13149,-3.96022 -2.26298,-7.35469 -3.39448,-10.18342 -6.78895,-15.84089 -9.05193,-49.78564 -10.18342,-78.07293 H 271.3277 c -7.92044,0 -13.5779,6.2232 -13.5779,13.5779 0,7.92044 -6.2232,13.5779 -13.5779,13.5779 -7.35469,0 -13.5779,6.2232 -13.5779,13.5779 v 286.83315 c 0,7.9204 6.22321,13.5779 13.5779,13.5779 h 13.5779 v 5.6575 c 0,4.5259 2.26299,9.0519 6.22321,11.8806 l 117.67514,75.81 c 2.26298,1.6972 5.09171,2.263 7.92044,2.263 l 213.28619,-10.7492 c 13.5779,20.3668 39.60221,46.3911 76.94147,30.5503 39.0364,-16.4067 63.3635,-24.8929 85.4276,-22.6299 5.0917,0.5658 9.6177,2.263 14.1436,5.6575 l 14.1437,9.6177 c 27.7215,19.2353 44.6939,51.4828 44.6939,85.42762 v 191.7878 c 0,96.1768 75.2442,106.926 129.5558,106.926 54.31155,0 62.79775,-27.1558 71.84965,-51.4829 -37.9049,-38.4707 -84.29605,-106.9259 -117.10935,-230.8243 z M 424.07909,839.12908 h -39.03647 c -3.39447,0 -6.78895,-2.263 -7.92044,-5.6574 L 337.51997,722.01971 c -2.26298,-5.65746 2.26298,-11.31492 7.92044,-11.31492 h 39.03646 c 3.39448,0 6.78895,2.26299 7.92045,5.65746 l 39.60221,111.45193 c 2.26298,5.6575 -1.69724,11.3149 -7.92044,11.3149 z m 82.59889,0 h -39.03646 c -3.39448,0 -6.78895,-2.263 -7.92045,-5.6574 L 420.11886,722.01971 c -2.26298,-5.65746 2.26299,-11.31492 7.92045,-11.31492 h 39.03646 c 3.39448,0 6.78895,2.26299 7.92044,5.65746 l 39.60221,111.45193 c 1.69724,5.6575 -2.26298,11.3149 -7.92044,11.3149 z m 82.03315,0 h -39.03647 c -3.39447,0 -6.78895,-2.263 -7.92044,-5.6574 L 502.15201,722.01971 c -2.26298,-5.65746 2.26299,-11.31492 7.92044,-11.31492 h 39.03647 c 3.39447,0 6.78895,2.26299 7.92044,5.65746 l 39.60221,111.45193 c 2.26298,5.6575 -2.26298,11.3149 -7.92044,11.3149 z m 82.03315,0 h -39.03647 c -3.39447,0 -6.78895,-2.263 -7.92044,-5.6574 L 584.18516,722.01971 c -2.26298,-5.65746 2.26298,-11.31492 7.92044,-11.31492 h 39.03647 c 3.39447,0 6.78895,2.26299 7.92044,5.65746 l 39.60224,111.45193 c 2.263,5.6575 -1.6973,11.3149 -7.92047,11.3149 z" />
  </g>
</svg>
