<?xml version="1.0" encoding="UTF-8" standalone="no"?>
<svg
   xmlns:dc="http://purl.org/dc/elements/1.1/"
   xmlns:cc="http://creativecommons.org/ns#"
   xmlns:rdf="http://www.w3.org/1999/02/22-rdf-syntax-ns#"
   xmlns:svg="http://www.w3.org/2000/svg"
   xmlns="http://www.w3.org/2000/svg"
   xmlns:sodipodi="http://sodipodi.sourceforge.net/DTD/sodipodi-0.dtd"
   xmlns:inkscape="http://www.inkscape.org/namespaces/inkscape"
   class="icon"
   height="850"
   viewBox="0 0 850 1700"
   version="1.1"
   id="svg4242"
   sodipodi:docname="design.svg"
   width="850"
   inkscape:version="0.92.3 (2405546, 2018-03-11)">
  <metadata
     id="metadata4248">
    <rdf:RDF>
      <cc:Work
         rdf:about="">
        <dc:format>image/svg+xml</dc:format>
        <dc:type
           rdf:resource="http://purl.org/dc/dcmitype/StillImage" />
        <dc:title></dc:title>
      </cc:Work>
    </rdf:RDF>
  </metadata>
  <defs
     id="defs4246" />
  <sodipodi:namedview
     pagecolor="#ffffff"
     bordercolor="#666666"
     borderopacity="1"
     objecttolerance="10"
     gridtolerance="10"
     guidetolerance="10"
     inkscape:pageopacity="0"
     inkscape:pageshadow="2"
     inkscape:window-width="1366"
     inkscape:window-height="705"
     id="namedview4244"
     showgrid="false"
     inkscape:zoom="0.41346352"
     inkscape:cx="756.5"
     inkscape:cy="256"
     inkscape:window-x="-8"
     inkscape:window-y="-8"
     inkscape:window-maximized="1"
     inkscape:current-layer="svg4242" />
  <circle
     style="opacity:1;fill:#ffffff;fill-opacity:1;stroke:#ffffff;stroke-width:40;stroke-miterlimit:4;stroke-dasharray:none;stroke-opacity:1"
     id="path4793"
     cx="428.76337"
     cy="860.74817"
     r="766.69397" />
  <path
     style="stroke-width:1"
     inkscape:connector-curvature="0"
     d="m 171.16917,1104.0892 c -4.9024,65.4144 -58.72,96.3264 -67.2064,89.6128 0,0 136.64,76.6272 233.8944,-35.8592 13.824,-15.6928 28.6144,-37.1968 35.7888,-61.3888 l -109.728,-107.52005 c 0.01,0.006 -86.4448,28.24325 -92.7488,115.15525 z m 199.8144,-290.30405 -167.0848,-46.592 282.1952,-153.216 35.0016,61.8176 c 24.5888,-21.9648 46.9888,-41.2096 68.0768,-58.2528 l -65.408,-115.136 -543.001603,294.7968 316.320003,88.2432 z m 214.1632,152.32 240.5504,67.20005 -113.7472,-200.26885 a 5825.6832,5825.6832 0 0 1 -126.8032,133.0688 z m -302.848,-27.328 c -9.4528,8.9472 -11.2,21.9456 -4.0256,28.6592 l 120.4928,118.27845 c 7.1744,6.72 20.1344,4.928 29.5808,-4.0256 l 28.2176,-27.7824 -146.528,-142.00965 z m 584.1728,-426.0736 c -37.1904,-36.288 -150.9376,12.992 -453.7856,299.7248 l -72.6336,69.888 146.528,142.01605 70.7904,-70.32965 c 293.4336,-295.6864 345.8496,-405.0048 309.1008,-441.2992 z"
     id="path4976" />
</svg>
