<?xml version="1.0" encoding="UTF-8" standalone="no"?>
<!-- Created with Inkscape (http://www.inkscape.org/) -->

<svg
   xmlns:dc="http://purl.org/dc/elements/1.1/"
   xmlns:cc="http://creativecommons.org/ns#"
   xmlns:rdf="http://www.w3.org/1999/02/22-rdf-syntax-ns#"
   xmlns:svg="http://www.w3.org/2000/svg"
   xmlns="http://www.w3.org/2000/svg"
   xmlns:sodipodi="http://sodipodi.sourceforge.net/DTD/sodipodi-0.dtd"
   xmlns:inkscape="http://www.inkscape.org/namespaces/inkscape"
   width="55.588734mm"
   height="93.927094mm"
   viewBox="0 0 55.588733 93.927094"
   version="1.1"
   id="svg8"
   inkscape:version="0.92.3 (2405546, 2018-03-11)"
   sodipodi:docname="logo_white_small.svg"
   inkscape:export-filename="D:\programming\webdesign\webdesign\sites\Borianka\new template\html\images\logo_white_small.png"
   inkscape:export-xdpi="24.2922"
   inkscape:export-ydpi="24.2922">
  <defs
     id="defs2" />
  <sodipodi:namedview
     id="base"
     pagecolor="#ffffff"
     bordercolor="#666666"
     borderopacity="1.0"
     inkscape:pageopacity="0.0"
     inkscape:pageshadow="2"
     inkscape:zoom="1.8836083"
     inkscape:cx="75.664132"
     inkscape:cy="200.65291"
     inkscape:document-units="mm"
     inkscape:current-layer="layer1"
     showgrid="false"
     inkscape:window-width="1366"
     inkscape:window-height="705"
     inkscape:window-x="-8"
     inkscape:window-y="-8"
     inkscape:window-maximized="1" />
  <metadata
     id="metadata5">
    <rdf:RDF>
      <cc:Work
         rdf:about="">
        <dc:format>image/svg+xml</dc:format>
        <dc:type
           rdf:resource="http://purl.org/dc/dcmitype/StillImage" />
        <dc:title></dc:title>
      </cc:Work>
    </rdf:RDF>
  </metadata>
  <g
     inkscape:label="Layer 1"
     inkscape:groupmode="layer"
     id="layer1"
     transform="translate(-67.336311,-139.94856)">
    <path
       style="fill:#ffffff;fill-opacity:1;stroke-width:0.26458335"
       d="m 78.766911,232.2272 0.0788,-1.64845 4.70585,-0.41758 c 4.50443,-0.3997 4.73658,-0.44828 5.42396,-1.13491 l 0.71811,-0.71733 0.13229,-4.95571 0.13229,-4.9557 h 2.91042 2.91042 l 0.0657,4.7625 c 0.0682,4.94988 0.22255,5.72838 1.24678,6.29 0.2968,0.16275 2.62323,0.48329 5.169849,0.71232 l 4.63021,0.41641 0.0788,1.64845 0.0788,1.64845 H 92.868731 78.688281 Z m -11.4306,-18.59218 v -2.51354 h 11.24479 11.24479 v -8.03385 -8.03384 l 1.25678,-0.47159 c 0.69122,-0.25937 1.93798,-0.81132 2.77057,-1.22657 0.8326,-0.41524 1.63627,-0.75499 1.78594,-0.75499 0.18128,0 0.27213,3.09707 0.27213,9.27642 v 9.27641 l 8.929689,-0.0886 c 9.55481,-0.0948 9.91258,-0.14259 11.37426,-1.51789 1.67516,-1.57617 1.92086,-4.28081 0.63795,-7.02234 -1.801,-3.84865 -7.57427,-7.92564 -15.58409,-11.00526 -0.9095,-0.34969 -1.651799,-0.69593 -1.649549,-0.76943 0.002,-0.0735 1.433389,-0.70646 3.180299,-1.40656 2.15734,-0.8646 3.36545,-1.21634 3.76621,-1.09654 1.29803,0.38806 6.16603,3.08777 8.17899,4.53594 7.09834,5.1067 9.89449,12.03163 7.12757,17.65205 -1.45003,2.94544 -4.02641,4.75153 -7.79844,5.46688 -0.74221,0.14076 -11.06713,0.24688 -24.019839,0.24688 h -22.71805 z m 17.24979,-21.00719 c -2.4938,-0.86134 -4.02062,-2.8871 -4.02062,-5.33447 0,-2.584 1.666,-4.59257 4.45938,-5.37635 2.7369,-0.76794 2.68437,-0.80783 2.68437,2.03801 v 2.46688 l -0.99219,0.2451 c -1.22082,0.30158 -1.30006,0.93075 -0.15846,1.25816 0.58539,0.16789 1.17647,0.12487 1.98438,-0.14442 l 1.15064,-0.38353 0.0677,-20.80794 0.0677,-20.80794 -0.75754,-0.84784 -0.75755,-0.84784 -4.73416,-0.4201 -4.73416,-0.42009 -0.0788,-1.64845 -0.0788,-1.64845 h 14.18046 14.180449 l -0.0788,1.65365 -0.0788,1.65364 -4.6302,0.40432 c -4.667479,0.40757 -5.584579,0.64422 -6.079359,1.56873 -0.16154,0.30183 -0.27064,2.91267 -0.27064,6.47622 v 5.97052 l 8.532809,0.004 c 9.31914,0.004 10.76056,0.16926 13.23226,1.51453 1.72609,0.93944 3.46471,2.91385 4.20762,4.77822 0.83125,2.08607 0.83738,5.84748 0.0132,8.09383 -1.28773,3.50971 -4.2831,6.92521 -8.54591,9.74458 -2.93925,1.94398 -5.40247,3.15242 -11.97683,5.87575 -3.004549,1.24458 -6.506159,2.78688 -7.781349,3.42732 -4.1111,2.06472 -6.33187,2.43802 -9.00699,1.51405 z m 17.520639,-10.78126 c 4.49204,-1.90905 5.68395,-2.5185 8.27746,-4.23243 4.41368,-2.9168 6.66822,-5.89384 6.89826,-9.10888 0.21526,-3.0085 -1.10852,-4.87711 -3.90865,-5.51736 -0.67356,-0.15401 -4.72387,-0.27505 -9.32656,-0.2787 l -8.135939,-0.006 v 10.84405 10.84406 l 1.38906,-0.54598 c 0.76399,-0.30029 2.926849,-1.19952 4.806369,-1.99829 z M 67.336311,160.18919 v -2.51355 h 10.18646 10.18646 v 2.51355 2.51354 h -10.18646 -10.18646 z"
       id="path3738"
       inkscape:connector-curvature="0"
       sodipodi:nodetypes="ccccccccccccccccccccccccccsscsccccccsscscccscsccsccccccccccccccccscccccscscccssscccccccccccccccc" />
    <path
       style="fill:#000000;stroke-width:0.26458335"
       d=""
       id="path3728"
       inkscape:connector-curvature="0" />
    <path
       style="fill:#000000;stroke-width:0.26458335"
       d=""
       id="path3726"
       inkscape:connector-curvature="0" />
    <path
       style="fill:#000000;stroke-width:0.26458335"
       d=""
       id="path3724"
       inkscape:connector-curvature="0" />
  </g>
</svg>
